<svg width="498" height="179" viewBox="0 0 498 179" fill="none" xmlns="http://www.w3.org/2000/svg">
<path d="M469.033 113.369C464.118 113.369 459.122 112.563 454.046 110.951C449.05 109.34 445.142 107.164 442.322 104.425L447.519 84.6034C449.856 87.8264 453.079 90.6465 457.188 93.0638C461.378 95.481 465.689 96.6896 470.121 96.6896C473.102 96.6896 475.237 96.1256 476.526 94.9975C477.896 93.8695 478.581 92.4997 478.581 90.8882C478.581 89.035 477.896 87.7055 476.526 86.8998C475.156 86.0135 473.746 85.2883 472.296 84.7243L462.144 80.8567C459.888 79.9704 457.309 78.7617 454.408 77.2308C451.508 75.6999 448.97 73.5244 446.794 70.7043C444.699 67.8842 443.652 64.1777 443.652 59.585C443.652 55.3951 444.699 51.5275 446.794 47.9822C448.889 44.4369 451.911 41.5765 455.859 39.401C459.888 37.1449 464.722 36.0168 470.362 36.0168C475.6 36.0168 480.474 36.9032 484.987 38.6758C489.579 40.4485 492.923 42.4225 495.018 44.598L490.184 63.6943C488.33 61.3576 486.235 59.3835 483.899 57.772C481.643 56.08 479.266 54.831 476.768 54.0253C474.351 53.139 472.014 52.6958 469.758 52.6958C467.18 52.6958 465.286 53.2196 464.077 54.267C462.869 55.3145 462.264 56.5231 462.264 57.8929C462.264 58.9404 462.667 59.9878 463.473 61.0353C464.359 62.0022 465.81 62.8885 467.824 63.6943L477.251 67.1993C479.991 68.1662 482.892 69.4554 485.953 71.0668C489.096 72.6783 491.755 74.9344 493.93 77.8351C496.106 80.6552 497.194 84.5631 497.194 89.5588C497.194 94.2321 495.985 98.3817 493.568 102.008C491.231 105.553 487.928 108.333 483.657 110.347C479.467 112.361 474.592 113.369 469.033 113.369Z" fill="#393BD9"/>
<path d="M388.62 113.369C383.544 113.369 378.75 112.16 374.238 109.743C369.725 107.245 366.059 103.66 363.239 98.9862C360.5 94.2323 359.13 88.5115 359.13 81.8238V38.4343H380.16V79.044C380.16 83.0727 381.368 86.6583 383.786 89.8007C386.284 92.9431 389.748 94.5143 394.18 94.5143C396.597 94.5143 398.853 93.9503 400.948 92.8223C403.124 91.6136 404.856 89.8813 406.145 87.6252C407.515 85.3691 408.2 82.5893 408.2 79.2857V38.4343H429.23V110.952H410.134V103.337C407.555 106.56 404.373 109.058 400.586 110.831C396.879 112.523 392.891 113.369 388.62 113.369Z" fill="#393BD9"/>
<path d="M275.939 110.951V38.4341H294.794V46.411C297.372 43.0268 300.555 40.4485 304.342 38.6758C308.129 36.9032 312.198 36.0168 316.549 36.0168C321.706 36.0168 326.5 37.2658 330.932 39.7636C335.444 42.1808 339.07 45.7664 341.809 50.5203C344.629 55.1936 346.039 60.8741 346.039 67.5619V110.951H325.009V70.3417C325.009 66.3129 323.801 62.7274 321.384 59.585C318.966 56.4425 315.502 54.8713 310.989 54.8713C308.572 54.8713 306.276 55.4354 304.1 56.5634C302.005 57.6109 300.273 59.2627 298.903 61.5187C297.614 63.6943 296.969 66.5547 296.969 70.1V110.951H275.939Z" fill="#393BD9"/>
<path d="M218.205 149.627C214.418 149.627 210.752 149.265 207.206 148.54C203.661 147.814 200.317 146.727 197.175 145.276C194.113 143.907 191.333 142.295 188.835 140.442L193.912 119.654C196.49 123.118 199.874 125.938 204.064 128.114C208.254 130.37 212.967 131.498 218.205 131.498C223.2 131.498 227.431 130.531 230.895 128.597C234.36 126.664 237.019 124.005 238.872 120.62C240.725 117.236 241.652 113.329 241.652 108.897V103.821C238.913 106.641 235.609 108.857 231.741 110.468C227.954 112.08 223.764 112.885 219.172 112.885C214.176 112.885 209.462 111.918 205.031 109.985C200.68 107.97 196.853 105.231 193.549 101.766C190.245 98.2207 187.627 94.1517 185.693 89.559C183.84 84.8856 182.913 79.9303 182.913 74.6929C182.913 69.4556 183.84 64.5405 185.693 59.9477C187.627 55.2744 190.245 51.2054 193.549 47.7407C196.853 44.1954 200.68 41.4558 205.031 39.5221C209.462 37.5077 214.176 36.5005 219.172 36.5005C223.845 36.5005 228.116 37.3465 231.983 39.0386C235.851 40.6501 239.154 42.9062 241.894 45.8069V38.4343H260.023V111.918C260.023 119.815 258.089 126.583 254.222 132.223C250.354 137.863 245.238 142.174 238.872 145.156C232.507 148.137 225.618 149.627 218.205 149.627ZM221.71 94.3934C225.255 94.3934 228.478 93.5071 231.379 91.7345C234.279 89.9618 236.576 87.5849 238.268 84.6036C240.041 81.6223 240.927 78.3188 240.927 74.6929C240.927 71.067 240.041 67.7635 238.268 64.7822C236.576 61.801 234.279 59.424 231.379 57.6514C228.478 55.8787 225.255 54.9924 221.71 54.9924C218.165 54.9924 214.942 55.8787 212.041 57.6514C209.14 59.424 206.803 61.801 205.031 64.7822C203.339 67.7635 202.493 71.067 202.493 74.6929C202.493 78.3188 203.339 81.6223 205.031 84.6036C206.803 87.5849 209.14 89.9618 212.041 91.7345C214.942 93.5071 218.165 94.3934 221.71 94.3934Z" fill="#393BD9"/>
<path d="M104.844 147.21L129.016 98.6236L99.4053 38.4343H122.611L135.422 65.024C136.55 67.4412 137.517 69.657 138.323 71.6714C139.209 73.6052 139.934 75.4987 140.498 77.3519C141.143 75.4987 141.908 73.6052 142.795 71.6714C143.681 69.657 144.729 67.4412 145.937 65.024L158.99 38.4343H181.35L127.445 147.21H104.844Z" fill="#393BD9"/>
<path d="M57.5304 113.127C49.5535 113.127 42.1003 111.677 35.1709 108.776C28.2414 105.795 22.1178 101.726 16.7998 96.5688C11.5625 91.412 7.45316 85.4092 4.4719 78.5604C1.49063 71.7115 0 64.3792 0 56.5635C0 48.7477 1.49063 41.4154 4.4719 34.5666C7.45316 27.7177 11.5625 21.7149 16.7998 16.5581C22.1178 11.4013 28.2414 7.37258 35.1709 4.4719C42.1003 1.49063 49.5535 0 57.5304 0C64.7015 0 71.4698 1.16833 77.8352 3.50499C84.2006 5.84166 89.8811 9.14523 94.8767 13.4157L88.7128 38.7967C85.7315 33.8011 81.6222 29.6112 76.3848 26.2271C71.1475 22.7624 65.1044 21.03 58.2555 21.03C53.3405 21.03 48.7477 21.9566 44.4772 23.8098C40.2874 25.663 36.6212 28.2011 33.4788 31.4241C30.3364 34.6471 27.8789 38.4341 26.1062 42.7852C24.3336 47.0556 23.4472 51.6484 23.4472 56.5635C23.4472 61.4785 24.3336 66.1116 26.1062 70.4626C27.8789 74.7331 30.3364 78.4798 33.4788 81.7028C36.6212 84.9258 40.2874 87.4639 44.4772 89.3171C48.7477 91.1703 53.3405 92.0969 58.2555 92.0969C65.0238 92.0969 71.0266 90.4048 76.264 87.0207C81.5819 83.556 85.7315 79.3258 88.7128 74.3302L94.8767 99.7112C89.8005 103.901 84.0797 107.205 77.7143 109.622C71.4295 111.959 64.7015 113.127 57.5304 113.127Z" fill="#393BD9"/>
<path d="M58.603 77.4983C59.0206 66.3201 68.3557 57.351 79.9901 56.9498C68.3557 56.5486 59.0206 47.5796 58.603 36.4014C58.1854 47.5796 48.8503 56.5486 37.2158 56.9498C48.8503 57.351 58.1854 66.3201 58.603 77.4983Z" fill="#6A7282"/>
<path d="M497 160.855V178.42H494.119V166.39L488.761 178.42H486.764L481.381 166.39V178.42H478.5V160.855H481.609L487.775 174.629L493.917 160.855H497Z" fill="#6A7282"/>
<path d="M465.347 163.18V168.336H471.413V170.686H465.347V176.07H472.171V178.42H462.466V160.83H472.171V163.18H465.347Z" fill="#6A7282"/>
<path d="M456.768 160.855V163.205H452.093V178.42H449.212V163.205H444.511V160.855H456.768Z" fill="#6A7282"/>
<path d="M433.174 178.597C431.995 178.597 430.933 178.395 429.99 177.99C429.046 177.569 428.305 176.979 427.766 176.221C427.227 175.463 426.957 174.578 426.957 173.568H430.04C430.108 174.326 430.403 174.949 430.925 175.438C431.464 175.926 432.214 176.171 433.174 176.171C434.168 176.171 434.943 175.935 435.5 175.463C436.056 174.974 436.334 174.351 436.334 173.593C436.334 173.003 436.157 172.523 435.803 172.152C435.466 171.782 435.036 171.495 434.514 171.293C434.008 171.091 433.301 170.872 432.391 170.636C431.245 170.333 430.31 170.029 429.585 169.726C428.878 169.406 428.271 168.917 427.766 168.26C427.26 167.603 427.008 166.727 427.008 165.632C427.008 164.621 427.26 163.736 427.766 162.978C428.271 162.22 428.979 161.638 429.889 161.234C430.799 160.83 431.852 160.627 433.048 160.627C434.75 160.627 436.14 161.057 437.218 161.916C438.313 162.759 438.92 163.921 439.038 165.404H435.853C435.803 164.764 435.5 164.216 434.944 163.761C434.387 163.306 433.655 163.079 432.745 163.079C431.919 163.079 431.245 163.29 430.723 163.711C430.2 164.132 429.939 164.739 429.939 165.531C429.939 166.07 430.099 166.516 430.42 166.87C430.757 167.207 431.178 167.477 431.683 167.679C432.189 167.881 432.879 168.1 433.756 168.336C434.918 168.656 435.862 168.976 436.586 169.296C437.328 169.616 437.951 170.113 438.457 170.787C438.979 171.445 439.24 172.329 439.24 173.441C439.24 174.334 438.996 175.177 438.507 175.969C438.035 176.76 437.336 177.401 436.409 177.889C435.5 178.361 434.421 178.597 433.174 178.597Z" fill="#6A7282"/>
<path d="M422.32 160.855L416.508 172.051V178.42H413.626V172.051L407.788 160.855H410.998L415.067 169.473L419.136 160.855H422.32Z" fill="#6A7282"/>
<path d="M397.059 178.597C395.88 178.597 394.818 178.395 393.875 177.99C392.931 177.569 392.19 176.979 391.651 176.221C391.111 175.463 390.842 174.578 390.842 173.568H393.925C393.993 174.326 394.287 174.949 394.81 175.438C395.349 175.926 396.099 176.171 397.059 176.171C398.053 176.171 398.828 175.935 399.384 175.463C399.94 174.974 400.218 174.351 400.218 173.593C400.218 173.003 400.041 172.523 399.688 172.152C399.351 171.782 398.921 171.495 398.399 171.293C397.893 171.091 397.185 170.872 396.276 170.636C395.13 170.333 394.195 170.029 393.47 169.726C392.763 169.406 392.156 168.917 391.651 168.26C391.145 167.603 390.892 166.727 390.892 165.632C390.892 164.621 391.145 163.736 391.651 162.978C392.156 162.22 392.864 161.638 393.774 161.234C394.683 160.83 395.736 160.627 396.933 160.627C398.635 160.627 400.025 161.057 401.103 161.916C402.198 162.759 402.805 163.921 402.923 165.404H399.738C399.688 164.764 399.384 164.216 398.828 163.761C398.272 163.306 397.539 163.079 396.629 163.079C395.804 163.079 395.13 163.29 394.608 163.711C394.085 164.132 393.824 164.739 393.824 165.531C393.824 166.07 393.984 166.516 394.304 166.87C394.641 167.207 395.062 167.477 395.568 167.679C396.073 167.881 396.764 168.1 397.64 168.336C398.803 168.656 399.747 168.976 400.471 169.296C401.212 169.616 401.836 170.113 402.341 170.787C402.864 171.445 403.125 172.329 403.125 173.441C403.125 174.334 402.88 175.177 402.392 175.969C401.92 176.76 401.221 177.401 400.294 177.889C399.384 178.361 398.306 178.597 397.059 178.597Z" fill="#6A7282"/>
<path d="M376.227 160.855V163.205H371.552V178.42H368.671V163.205H363.97V160.855H376.227Z" fill="#6A7282"/>
<path d="M358.316 178.42H355.435L346.766 165.303V178.42H343.885V160.83H346.766L355.435 173.921V160.83H358.316V178.42Z" fill="#6A7282"/>
<path d="M330.733 163.18V168.336H336.798V170.686H330.733V176.07H337.557V178.42H327.852V160.83H337.557V163.18H330.733Z" fill="#6A7282"/>
<path d="M321.284 160.855V178.42H318.403V166.39L313.045 178.42H311.049L305.665 166.39V178.42H302.784V160.855H305.893L312.06 174.629L318.201 160.855H321.284Z" fill="#6A7282"/>
<path d="M289.631 163.18V168.336H295.697V170.686H289.631V176.07H296.455V178.42H286.75V160.83H296.455V163.18H289.631Z" fill="#6A7282"/>
<path d="M277.135 165.91C276.68 165.033 276.048 164.376 275.239 163.938C274.431 163.483 273.496 163.256 272.434 163.256C271.271 163.256 270.235 163.517 269.325 164.039C268.416 164.562 267.699 165.303 267.177 166.263C266.672 167.224 266.419 168.336 266.419 169.6C266.419 170.863 266.672 171.984 267.177 172.961C267.699 173.921 268.416 174.663 269.325 175.185C270.235 175.707 271.271 175.969 272.434 175.969C274.001 175.969 275.273 175.53 276.25 174.654C277.228 173.778 277.826 172.59 278.045 171.091H271.448V168.791H281.128V171.04C280.943 172.405 280.454 173.66 279.662 174.806C278.887 175.952 277.868 176.87 276.604 177.561C275.357 178.235 273.967 178.572 272.434 178.572C270.783 178.572 269.275 178.193 267.91 177.434C266.545 176.659 265.459 175.589 264.65 174.225C263.858 172.86 263.462 171.318 263.462 169.6C263.462 167.881 263.858 166.339 264.65 164.975C265.459 163.61 266.545 162.548 267.91 161.79C269.292 161.015 270.8 160.627 272.434 160.627C274.304 160.627 275.964 161.091 277.413 162.017C278.879 162.927 279.94 164.225 280.597 165.91H277.135Z" fill="#6A7282"/>
<path d="M254.609 174.831H247.255L245.991 178.42H242.983L249.277 160.83H252.613L258.906 178.42H255.873L254.609 174.831ZM253.801 172.481L250.945 164.317L248.063 172.481H253.801Z" fill="#6A7282"/>
<path d="M237.457 178.42H234.575L225.907 165.303V178.42H223.025V160.83H225.907L234.575 173.921V160.83H237.457V178.42Z" fill="#6A7282"/>
<path d="M213.212 174.831H205.857L204.594 178.42H201.586L207.879 160.83H211.215L217.508 178.42H214.475L213.212 174.831ZM212.403 172.481L209.547 164.317L206.666 172.481H212.403Z" fill="#6A7282"/>
<path d="M196.055 160.855V178.42H193.174V166.39L187.816 178.42H185.819L180.436 166.39V178.42H177.555V160.855H180.663L186.83 174.629L192.972 160.855H196.055Z" fill="#6A7282"/>
<path d="M155.057 163.18V168.336H161.123V170.686H155.057V176.07H161.881V178.42H152.176V160.83H161.881V163.18H155.057Z" fill="#6A7282"/>
<path d="M128.888 169.6C128.888 167.881 129.284 166.339 130.076 164.975C130.884 163.61 131.971 162.548 133.336 161.79C134.717 161.015 136.225 160.627 137.86 160.627C139.73 160.627 141.39 161.091 142.839 162.017C144.305 162.927 145.366 164.225 146.023 165.91H142.561C142.106 164.983 141.474 164.292 140.665 163.837C139.856 163.382 138.921 163.155 137.86 163.155C136.697 163.155 135.661 163.416 134.751 163.938C133.841 164.461 133.125 165.21 132.603 166.188C132.097 167.165 131.845 168.302 131.845 169.6C131.845 170.897 132.097 172.034 132.603 173.012C133.125 173.989 133.841 174.747 134.751 175.286C135.661 175.808 136.697 176.07 137.86 176.07C138.921 176.07 139.856 175.842 140.665 175.387C141.474 174.932 142.106 174.241 142.561 173.315H146.023C145.366 175 144.305 176.297 142.839 177.207C141.39 178.117 139.73 178.572 137.86 178.572C136.209 178.572 134.701 178.193 133.336 177.434C131.971 176.659 130.884 175.589 130.076 174.225C129.284 172.86 128.888 171.318 128.888 169.6Z" fill="#6A7282"/>
<path d="M123.285 178.42H120.404L111.735 165.303V178.42H108.854V160.83H111.735L120.404 173.921V160.83H123.285V178.42Z" fill="#6A7282"/>
<path d="M99.0399 174.831H91.6853L90.4216 178.42H87.4141L93.7072 160.83H97.0433L103.336 178.42H100.304L99.0399 174.831ZM98.2312 172.481L95.3752 164.317L92.4941 172.481H98.2312Z" fill="#6A7282"/>
<path d="M78.8259 178.42L74.7821 171.394H72.5833V178.42H69.7021V160.855H75.7678C77.1157 160.855 78.2531 161.091 79.1798 161.563C80.1233 162.034 80.8225 162.666 81.2775 163.458C81.7492 164.25 81.9851 165.135 81.9851 166.112C81.9851 167.258 81.6481 168.302 80.9742 169.246C80.3171 170.173 79.2977 170.804 77.9161 171.141L82.2631 178.42H78.8259ZM72.5833 169.094H75.7678C76.8462 169.094 77.6549 168.825 78.1941 168.285C78.7501 167.746 79.0281 167.022 79.0281 166.112C79.0281 165.202 78.7585 164.494 78.2194 163.989C77.6802 163.467 76.863 163.205 75.7678 163.205H72.5833V169.094Z" fill="#6A7282"/>
<path d="M52.3285 160.855V172.051C52.3285 173.382 52.6739 174.385 53.3647 175.059C54.0723 175.733 55.0496 176.07 56.2964 176.07C57.5601 176.07 58.5373 175.733 59.2282 175.059C59.9358 174.385 60.2897 173.382 60.2897 172.051V160.855H63.1708V172.001C63.1708 173.433 62.8591 174.646 62.2357 175.64C61.6123 176.634 60.7783 177.376 59.7336 177.864C58.689 178.353 57.5348 178.597 56.2711 178.597C55.0075 178.597 53.8533 178.353 52.8087 177.864C51.7809 177.376 50.9637 176.634 50.3571 175.64C49.7506 174.646 49.4473 173.433 49.4473 172.001V160.855H52.3285Z" fill="#6A7282"/>
<path d="M37.2271 178.597C36.0476 178.597 34.9861 178.395 34.0426 177.99C33.0991 177.569 32.3577 176.979 31.8185 176.221C31.2794 175.463 31.0098 174.578 31.0098 173.568H34.0931C34.1605 174.326 34.4554 174.949 34.9777 175.438C35.5169 175.926 36.2667 176.171 37.2271 176.171C38.2212 176.171 38.9962 175.935 39.5522 175.463C40.1083 174.974 40.3863 174.351 40.3863 173.593C40.3863 173.003 40.2094 172.523 39.8555 172.152C39.5186 171.782 39.0889 171.495 38.5666 171.293C38.0611 171.091 37.3534 170.872 36.4436 170.636C35.2979 170.333 34.3627 170.029 33.6382 169.726C32.9306 169.406 32.324 168.917 31.8185 168.26C31.313 167.603 31.0603 166.727 31.0603 165.632C31.0603 164.621 31.313 163.736 31.8185 162.978C32.324 162.22 33.0317 161.638 33.9415 161.234C34.8514 160.83 35.9044 160.627 37.1007 160.627C38.8025 160.627 40.1925 161.057 41.2709 161.916C42.366 162.759 42.9726 163.921 43.0906 165.404H39.9061C39.8555 164.764 39.5522 164.216 38.9962 163.761C38.4402 163.306 37.7073 163.079 36.7974 163.079C35.9718 163.079 35.2979 163.29 34.7755 163.711C34.2532 164.132 33.9921 164.739 33.9921 165.531C33.9921 166.07 34.1521 166.516 34.4723 166.87C34.8092 167.207 35.2305 167.477 35.7359 167.679C36.2414 167.881 36.9322 168.1 37.8084 168.336C38.971 168.656 39.9145 168.976 40.639 169.296C41.3804 169.616 42.0038 170.113 42.5093 170.787C43.0316 171.445 43.2927 172.329 43.2927 173.441C43.2927 174.334 43.0484 175.177 42.5598 175.969C42.088 176.76 41.3888 177.401 40.4621 177.889C39.5522 178.361 38.4739 178.597 37.2271 178.597Z" fill="#6A7282"/>
<path d="M24.8756 178.42H21.9944L13.3255 165.303V178.42H10.4443V160.83H13.3255L21.9944 173.921V160.83H24.8756V178.42Z" fill="#6A7282"/>
<path d="M3.88119 160.855V178.42H1V160.855H3.88119Z" fill="#6A7282"/>
</svg>
