<svg width="240" height="240" viewBox="0 0 240 240" fill="none" xmlns="http://www.w3.org/2000/svg">
<rect width="240" height="240" rx="60" fill="url(#paint0_linear_142_150)"/>
<path d="M125.085 40C154.574 40 180.34 55.9392 194.239 79.6719C191.729 100.081 176.769 108.835 161.234 114.81C140.954 105.72 126.686 85.9016 125.841 62.666C124.705 93.9014 99.3125 118.964 67.666 120.085C99.3126 121.206 124.705 146.269 125.841 177.505C126.686 154.27 140.953 134.449 161.232 125.359C176.767 131.333 191.728 140.087 194.239 160.496C180.34 184.23 154.575 200.171 125.085 200.171C80.8554 200.171 45.0002 164.315 45 120.085C45.0002 75.8554 80.8554 40.0002 125.085 40Z" fill="white"/>
<defs>
<linearGradient id="paint0_linear_142_150" x1="0" y1="0" x2="240" y2="240" gradientUnits="userSpaceOnUse">
<stop stop-color="#191BB9"/>
<stop offset="1" stop-color="#4143E2"/>
</linearGradient>
</defs>
</svg>
