<svg width="498" height="150" viewBox="0 0 498 150" fill="none" xmlns="http://www.w3.org/2000/svg">
<path d="M469.033 113.369C464.118 113.369 459.122 112.563 454.046 110.951C449.05 109.34 445.142 107.164 442.322 104.425L447.519 84.6034C449.856 87.8264 453.079 90.6465 457.188 93.0638C461.378 95.481 465.689 96.6896 470.121 96.6896C473.102 96.6896 475.237 96.1256 476.526 94.9975C477.896 93.8695 478.581 92.4997 478.581 90.8882C478.581 89.035 477.896 87.7055 476.526 86.8998C475.156 86.0135 473.746 85.2883 472.296 84.7243L462.144 80.8567C459.888 79.9704 457.309 78.7617 454.408 77.2308C451.508 75.6999 448.97 73.5244 446.794 70.7043C444.699 67.8842 443.652 64.1777 443.652 59.585C443.652 55.3951 444.699 51.5275 446.794 47.9822C448.889 44.4369 451.911 41.5765 455.859 39.401C459.888 37.1449 464.722 36.0168 470.362 36.0168C475.6 36.0168 480.474 36.9032 484.987 38.6758C489.579 40.4485 492.923 42.4225 495.018 44.598L490.184 63.6943C488.33 61.3576 486.235 59.3835 483.899 57.772C481.643 56.08 479.266 54.831 476.768 54.0253C474.351 53.139 472.014 52.6958 469.758 52.6958C467.18 52.6958 465.286 53.2196 464.077 54.267C462.869 55.3145 462.264 56.5231 462.264 57.8929C462.264 58.9404 462.667 59.9878 463.473 61.0353C464.359 62.0022 465.81 62.8885 467.824 63.6943L477.251 67.1993C479.991 68.1662 482.892 69.4554 485.953 71.0668C489.096 72.6783 491.755 74.9344 493.93 77.8351C496.106 80.6552 497.194 84.5631 497.194 89.5588C497.194 94.2321 495.985 98.3817 493.568 102.008C491.231 105.553 487.928 108.333 483.657 110.347C479.467 112.361 474.592 113.369 469.033 113.369Z" fill="#393BD9"/>
<path d="M388.62 113.369C383.544 113.369 378.75 112.16 374.238 109.743C369.725 107.245 366.059 103.66 363.239 98.9862C360.5 94.2323 359.13 88.5115 359.13 81.8238V38.4343H380.16V79.044C380.16 83.0727 381.368 86.6583 383.786 89.8007C386.284 92.9431 389.748 94.5143 394.18 94.5143C396.597 94.5143 398.853 93.9503 400.948 92.8223C403.124 91.6136 404.856 89.8813 406.145 87.6252C407.515 85.3691 408.2 82.5893 408.2 79.2857V38.4343H429.23V110.952H410.134V103.337C407.555 106.56 404.373 109.058 400.586 110.831C396.879 112.523 392.891 113.369 388.62 113.369Z" fill="#393BD9"/>
<path d="M275.939 110.951V38.4341H294.794V46.411C297.372 43.0268 300.555 40.4485 304.342 38.6758C308.129 36.9032 312.198 36.0168 316.549 36.0168C321.706 36.0168 326.5 37.2658 330.932 39.7636C335.444 42.1808 339.07 45.7664 341.809 50.5203C344.629 55.1936 346.039 60.8741 346.039 67.5619V110.951H325.009V70.3417C325.009 66.3129 323.801 62.7274 321.384 59.585C318.966 56.4425 315.502 54.8713 310.989 54.8713C308.572 54.8713 306.276 55.4354 304.1 56.5634C302.005 57.6109 300.273 59.2627 298.903 61.5187C297.614 63.6943 296.969 66.5547 296.969 70.1V110.951H275.939Z" fill="#393BD9"/>
<path d="M218.205 149.627C214.418 149.627 210.752 149.265 207.206 148.54C203.661 147.814 200.317 146.727 197.175 145.276C194.113 143.907 191.333 142.295 188.835 140.442L193.912 119.654C196.49 123.118 199.874 125.938 204.064 128.114C208.254 130.37 212.967 131.498 218.205 131.498C223.2 131.498 227.431 130.531 230.895 128.597C234.36 126.664 237.019 124.005 238.872 120.62C240.725 117.236 241.652 113.329 241.652 108.897V103.821C238.913 106.641 235.609 108.857 231.741 110.468C227.954 112.08 223.764 112.885 219.172 112.885C214.176 112.885 209.462 111.918 205.031 109.985C200.68 107.97 196.853 105.231 193.549 101.766C190.245 98.2207 187.627 94.1517 185.693 89.559C183.84 84.8856 182.913 79.9303 182.913 74.6929C182.913 69.4556 183.84 64.5405 185.693 59.9477C187.627 55.2744 190.245 51.2054 193.549 47.7407C196.853 44.1954 200.68 41.4558 205.031 39.5221C209.462 37.5077 214.176 36.5005 219.172 36.5005C223.845 36.5005 228.116 37.3465 231.983 39.0386C235.851 40.6501 239.154 42.9062 241.894 45.8069V38.4343H260.023V111.918C260.023 119.815 258.089 126.583 254.222 132.223C250.354 137.863 245.238 142.174 238.872 145.156C232.507 148.137 225.618 149.627 218.205 149.627ZM221.71 94.3934C225.255 94.3934 228.478 93.5071 231.379 91.7345C234.279 89.9618 236.576 87.5849 238.268 84.6036C240.041 81.6223 240.927 78.3188 240.927 74.6929C240.927 71.067 240.041 67.7635 238.268 64.7822C236.576 61.801 234.279 59.424 231.379 57.6514C228.478 55.8787 225.255 54.9924 221.71 54.9924C218.165 54.9924 214.942 55.8787 212.041 57.6514C209.14 59.424 206.803 61.801 205.031 64.7822C203.339 67.7635 202.493 71.067 202.493 74.6929C202.493 78.3188 203.339 81.6223 205.031 84.6036C206.803 87.5849 209.14 89.9618 212.041 91.7345C214.942 93.5071 218.165 94.3934 221.71 94.3934Z" fill="#393BD9"/>
<path d="M104.844 147.21L129.016 98.6236L99.4053 38.4343H122.611L135.422 65.024C136.55 67.4412 137.517 69.657 138.323 71.6714C139.209 73.6052 139.934 75.4987 140.498 77.3519C141.143 75.4987 141.908 73.6052 142.795 71.6714C143.681 69.657 144.729 67.4412 145.937 65.024L158.99 38.4343H181.35L127.445 147.21H104.844Z" fill="#393BD9"/>
<path d="M57.5304 113.127C49.5535 113.127 42.1003 111.677 35.1709 108.776C28.2414 105.795 22.1178 101.726 16.7998 96.5688C11.5625 91.412 7.45316 85.4092 4.4719 78.5604C1.49063 71.7115 0 64.3792 0 56.5635C0 48.7477 1.49063 41.4154 4.4719 34.5666C7.45316 27.7177 11.5625 21.7149 16.7998 16.5581C22.1178 11.4013 28.2414 7.37258 35.1709 4.4719C42.1003 1.49063 49.5535 0 57.5304 0C64.7015 0 71.4698 1.16833 77.8352 3.50499C84.2006 5.84166 89.8811 9.14523 94.8767 13.4157L88.7128 38.7967C85.7315 33.8011 81.6222 29.6112 76.3848 26.2271C71.1475 22.7624 65.1044 21.03 58.2555 21.03C53.3405 21.03 48.7477 21.9566 44.4772 23.8098C40.2874 25.663 36.6212 28.2011 33.4788 31.4241C30.3364 34.6471 27.8789 38.4341 26.1062 42.7852C24.3336 47.0556 23.4472 51.6484 23.4472 56.5635C23.4472 61.4785 24.3336 66.1116 26.1062 70.4626C27.8789 74.7331 30.3364 78.4798 33.4788 81.7028C36.6212 84.9258 40.2874 87.4639 44.4772 89.3171C48.7477 91.1703 53.3405 92.0969 58.2555 92.0969C65.0238 92.0969 71.0266 90.4048 76.264 87.0207C81.5819 83.556 85.7315 79.3258 88.7128 74.3302L94.8767 99.7112C89.8005 103.901 84.0797 107.205 77.7143 109.622C71.4295 111.959 64.7015 113.127 57.5304 113.127Z" fill="#393BD9"/>
<path d="M58.603 77.4983C59.0206 66.3201 68.3557 57.351 79.9901 56.9498C68.3557 56.5486 59.0206 47.5796 58.603 36.4014C58.1854 47.5796 48.8503 56.5486 37.2158 56.9498C48.8503 57.351 58.1854 66.3201 58.603 77.4983Z" fill="#A2A3DF"/>
</svg>
